<svg width="12" height="12" viewBox="0 0 12 12" fill="none" xmlns="http://www.w3.org/2000/svg">
<path id="Vector" d="M11 11L8.58725 8.58725M8.58725 8.58725C8.99996 8.17454 9.32734 7.68458 9.5507 7.14535C9.77406 6.60612 9.88902 6.02817 9.88902 5.44451C9.88902 4.86085 9.77406 4.2829 9.5507 3.74367C9.32734 3.20444 8.99996 2.71448 8.58725 2.30177C8.17454 1.88906 7.68458 1.56168 7.14535 1.33832C6.60612 1.11496 6.02817 1 5.44451 1C4.86085 1 4.2829 1.11496 3.74367 1.33832C3.20444 1.56168 2.71448 1.88906 2.30177 2.30177C1.46826 3.13527 1 4.26575 1 5.44451C1 6.62326 1.46826 7.75374 2.30177 8.58725C3.13527 9.42076 4.26575 9.88902 5.44451 9.88902C6.62326 9.88902 7.75374 9.42076 8.58725 8.58725Z" stroke="#FAFAFA" stroke-linecap="round" stroke-linejoin="round"/>
</svg>
