<svg width="132" height="50" viewBox="0 0 132 50" fill="none" xmlns="http://www.w3.org/2000/svg">
<mask id="mask0_1736_82346" style="mask-type:luminance" maskUnits="userSpaceOnUse" x="0" y="0" width="135" height="49">
<path d="M135 0H0.699951V49H135V0Z" fill="white"/>
</mask>
<g mask="url(#mask0_1736_82346)">
<path d="M103.682 32.2426C101.703 31.5832 94.7629 29.8324 89.9887 35.2213C88.9873 31.3558 85.3775 28.6955 81.302 28.8092C77.2265 28.6727 73.5935 31.3558 72.5921 35.2213C67.8877 29.9233 61.1107 31.5377 59.0148 32.2199C59.1312 33.9707 59.7367 35.6306 60.7614 37.0631C66.8165 45.317 75.41 48.3184 81.2321 48.4094C81.2554 48.4094 81.2787 48.4094 81.302 48.4094H81.3486C81.3952 48.4094 81.4417 48.4094 81.4883 48.4094C87.3105 48.3412 95.8807 45.317 101.959 37.0631C102.984 35.6306 103.589 33.9707 103.682 32.2426Z" fill="white"/>
</g>
<mask id="mask1_1736_82346" style="mask-type:luminance" maskUnits="userSpaceOnUse" x="0" y="0" width="131" height="48">
<path d="M131 0H0.699951V48H131V0Z" fill="white"/>
</mask>
<g mask="url(#mask1_1736_82346)">
<path d="M64.7904 13.1881C66.2575 11.5509 68.0508 10.1866 70.0303 9.18616C66.3041 4.95688 63.3232 2.86498 62.019 2.36475C60.8779 5.77545 62.2053 11.1416 63.4396 14.8707C63.8588 14.2795 64.3013 13.7338 64.7904 13.1881Z" fill="#E55D0E"/>
</g>
<mask id="mask2_1736_82346" style="mask-type:luminance" maskUnits="userSpaceOnUse" x="0" y="0" width="131" height="48">
<path d="M131 0H0.699951V48H131V0Z" fill="white"/>
</mask>
<g mask="url(#mask2_1736_82346)">
<path d="M97.9068 13.188C98.3027 13.6428 98.6986 14.1203 99.0712 14.6205C100.282 10.9142 101.517 5.7072 100.422 2.38745C99.1178 2.88769 96.1601 4.95685 92.4805 9.11791C94.5532 10.0956 96.393 11.4827 97.9068 13.188Z" fill="#E55D0E"/>
</g>
<mask id="mask3_1736_82346" style="mask-type:luminance" maskUnits="userSpaceOnUse" x="0" y="0" width="131" height="48">
<path d="M131 0H0.699951V48H131V0Z" fill="white"/>
</mask>
<g mask="url(#mask3_1736_82346)">
<path d="M97.9068 13.1879C96.3931 11.4826 94.53 10.0956 92.4806 9.0951C96.1602 4.93404 99.1179 2.86488 100.422 2.36464C101.54 5.68439 100.306 10.8914 99.0713 14.5977C98.6986 14.1202 98.3027 13.6427 97.9068 13.1879ZM64.7904 13.1879C64.3013 13.7337 63.8588 14.2794 63.4396 14.8706C62.2053 11.1415 60.8779 5.77535 62.019 2.36464C63.3232 2.86488 66.3274 4.95678 70.0303 9.18605C68.0275 10.1865 66.2575 11.5508 64.7904 13.1879ZM103.613 30.1278C102.914 25.5347 101.843 21.5555 100.212 18.2585C101.563 15.1207 102.495 11.8009 102.984 8.41296C103.31 5.70713 103.193 2.93309 102.122 0.659287C101.866 0.15905 101.307 -0.136545 100.748 -0.0228547C99.7932 0.15905 98.163 0.750238 95.8574 2.52381C93.5286 4.41106 91.4326 6.54844 89.6161 8.9132C86.9845 8.11736 84.2364 7.73082 81.4883 7.75355C81.4418 7.75355 81.3952 7.75355 81.3719 7.75355C81.3253 7.75355 81.2787 7.75355 81.2554 7.75355C78.4142 7.73082 75.5963 8.1401 72.8948 8.98141C71.055 6.59392 68.9357 4.4338 66.5603 2.52381C64.278 0.772976 62.6478 0.181789 61.693 -0.000115267C61.134 -0.113805 60.5518 0.159051 60.3189 0.682026C59.2477 2.93309 59.1312 5.70713 59.4573 8.39022C59.9463 11.8919 60.9244 15.3026 62.3683 18.5541C60.808 21.7829 59.7833 25.6711 59.1079 30.1278C59.0148 30.8099 58.9682 31.5148 59.0381 32.197C61.134 31.5375 67.9343 29.9231 72.6153 35.1984C73.6168 31.3329 77.2265 28.6726 81.3253 28.7862C82.7692 28.7635 84.2131 29.0591 85.5406 29.673C87.753 30.8099 89.3832 32.8109 90.0353 35.1984C94.8094 29.8322 101.749 31.583 103.729 32.2197C103.752 31.5375 103.729 30.8327 103.613 30.1278Z" fill="#F28B36"/>
</g>
<mask id="mask4_1736_82346" style="mask-type:luminance" maskUnits="userSpaceOnUse" x="0" y="0" width="131" height="48">
<path d="M131 0H0.699951V48H131V0Z" fill="white"/>
</mask>
<g mask="url(#mask4_1736_82346)">
<path d="M87.5899 40.2919C87.357 40.7239 87.2406 41.2242 87.2173 41.7017C87.194 41.8608 87.0543 41.9745 86.9146 41.9518H86.5885L85.8433 43.8618C85.82 43.9073 85.7734 43.9527 85.7268 43.9527C85.6803 43.9527 85.657 43.93 85.6337 43.9073C85.4939 43.7481 85.3542 43.5662 85.2378 43.3843C85.2145 43.3388 85.1912 43.2933 85.1912 43.2479V41.065C83.9103 41.2469 82.6294 41.3151 81.3486 41.3151H81.2787C79.9978 41.3151 78.7169 41.2242 77.4594 41.0423V43.2251C77.4594 43.2706 77.4361 43.3161 77.4128 43.3616C77.2963 43.5435 77.1799 43.7254 77.0169 43.8845C76.9703 43.93 76.8771 43.93 76.8306 43.8845C76.8073 43.8618 76.8073 43.8618 76.8073 43.8391L76.062 41.9291H75.736C75.573 41.9291 75.4333 41.8154 75.4333 41.6789C75.41 41.1787 75.2935 40.7012 75.0606 40.2692C75.0141 40.1782 75.0606 40.0645 75.1538 40.0191C75.1771 40.0191 75.2004 39.9963 75.2237 39.9963C75.8292 39.9736 77.1333 39.9508 77.3895 39.9736H79.6951C79.9047 39.6325 80.254 39.3597 80.6499 39.2232V37.7225C77.9251 37.3815 77.5758 34.9485 77.6224 33.4932C77.6457 32.9021 78.1347 32.4246 78.7635 32.4246H83.887C84.4925 32.4246 85.0049 32.9021 85.0282 33.4932C85.0748 34.9485 84.7254 37.3815 82.0006 37.7225V39.2232C82.3966 39.3597 82.7226 39.6325 82.9555 39.9736H85.2611C85.5172 39.9508 86.8214 39.9736 87.4269 39.9963C87.5433 39.9963 87.6132 40.0873 87.6132 40.201C87.6132 40.2464 87.6132 40.2692 87.5899 40.2919Z" fill="#22263F"/>
</g>
<mask id="mask5_1736_82346" style="mask-type:luminance" maskUnits="userSpaceOnUse" x="0" y="0" width="131" height="48">
<path d="M131 0H0.699951V48H131V0Z" fill="white"/>
</mask>
<g mask="url(#mask5_1736_82346)">
<path d="M87.5899 40.2919C87.357 40.7239 87.2406 41.2241 87.2173 41.7016C87.194 41.8608 87.0543 41.9745 86.9146 41.9518H86.5885L85.8433 43.8618C85.82 43.9072 85.7734 43.9527 85.7268 43.9527C85.6803 43.9527 85.657 43.93 85.6337 43.9072C85.4939 43.7481 85.3542 43.5662 85.2378 43.3843C85.2145 43.3388 85.1912 43.2933 85.1912 43.2478V41.065C83.9103 41.2469 82.6294 41.3151 81.3486 41.3151H81.2787C79.9978 41.3151 78.7169 41.2241 77.4594 41.0422V43.2251C77.4594 43.2706 77.4361 43.316 77.4128 43.3615C77.2963 43.5434 77.1799 43.7253 77.0169 43.8845C76.9703 43.93 76.8771 43.93 76.8306 43.8845C76.8073 43.8618 76.8073 43.8618 76.8073 43.839L76.062 41.929H75.736C75.573 41.929 75.4333 41.8153 75.4333 41.6789C75.41 41.1787 75.2935 40.7012 75.0606 40.2692C75.0141 40.1782 75.0606 40.0645 75.1538 40.019C75.1771 40.019 75.2004 39.9963 75.2237 39.9963C75.8292 39.9736 77.1333 39.9508 77.3895 39.9736H79.6951C79.9047 39.6325 80.254 39.3596 80.6499 39.2232V37.7225C77.9251 37.3814 77.5758 34.9484 77.6224 33.4932C77.6457 32.902 78.1347 32.4245 78.7635 32.4245H83.887C84.4925 32.4245 85.0049 32.902 85.0282 33.4932C85.0748 34.9484 84.7487 37.3814 82.0006 37.7225V39.2232C82.3966 39.3596 82.7226 39.6325 82.9555 39.9736H85.2611C85.5172 39.9508 86.8214 39.9736 87.4269 39.9963C87.5433 39.9963 87.6132 40.0872 87.6132 40.2009C87.6132 40.2464 87.6132 40.2691 87.5899 40.2919ZM84.0733 42.5884C84.0733 42.9068 83.8637 43.2024 83.561 43.2933C83.5144 43.316 83.4445 43.316 83.398 43.316C83.0021 43.316 82.9555 42.8158 82.5363 42.8158C82.1171 42.8158 82.0007 44.0664 81.3719 44.1119C81.3719 44.1119 81.3719 44.1119 81.3486 44.1119C81.3486 44.1119 81.3486 44.1119 81.3253 44.1119H81.302C80.7198 44.0209 80.58 42.8385 80.1841 42.8385C79.7649 42.8385 79.7184 43.3388 79.3225 43.3388C79.2759 43.3388 79.206 43.3388 79.1594 43.316C78.8334 43.2251 78.6238 42.9295 78.6471 42.6112V42.2474H84.0966V42.5884H84.0733ZM103.682 32.2426C101.703 31.5832 94.7628 29.8324 89.9887 35.2213C89.3599 32.8565 87.7297 30.8556 85.4939 29.696C84.1898 29.082 82.7459 28.7864 81.2787 28.8092C77.2032 28.6727 73.5702 31.3558 72.5687 35.2213C67.8877 29.9233 61.0874 31.5377 58.9915 32.2199C59.1079 33.9707 59.7134 35.6306 60.7381 37.0631C66.7932 45.317 75.3867 48.3184 81.2088 48.4094H81.2787C81.302 48.4094 81.302 48.4094 81.3253 48.4094C81.3719 48.4094 81.4184 48.4094 81.4417 48.4094C83.2815 48.3639 85.1213 48.091 86.8913 47.5908C92.9696 45.84 98.2794 42.1337 101.912 37.0631C102.984 35.6306 103.589 33.9707 103.682 32.2426Z" fill="white"/>
</g>
<mask id="mask6_1736_82346" style="mask-type:luminance" maskUnits="userSpaceOnUse" x="0" y="0" width="131" height="48">
<path d="M131 0H0.699951V48H131V0Z" fill="white"/>
</mask>
<g mask="url(#mask6_1736_82346)">
<path d="M84.0733 42.2246V42.5884C84.0733 42.9068 83.8637 43.2023 83.561 43.2933C83.5144 43.2933 83.4445 43.316 83.398 43.316C83.0021 43.316 82.9555 42.8158 82.5363 42.8158C82.1171 42.8158 82.0007 44.0664 81.3719 44.1119C81.3719 44.1119 81.3719 44.1119 81.3486 44.1119C81.3253 44.1119 81.3486 44.1119 81.3253 44.1119H81.302C80.7198 44.0209 80.58 42.8385 80.1841 42.8385C79.7649 42.8385 79.7184 43.3388 79.3225 43.3388C79.2759 43.3388 79.206 43.3388 79.1594 43.316C78.8334 43.2251 78.6238 42.9295 78.6471 42.6112V42.2473H84.0733V42.2246Z" fill="#22263F"/>
</g>
<mask id="mask7_1736_82346" style="mask-type:luminance" maskUnits="userSpaceOnUse" x="0" y="0" width="131" height="48">
<path d="M131 0H0.699951V48H131V0Z" fill="white"/>
</mask>
<g mask="url(#mask7_1736_82346)">
<path d="M94.6231 24.2841L94.367 22.3741C94.367 22.0558 94.1108 21.783 93.7614 21.783C93.6916 21.783 93.6217 21.8057 93.5519 21.8284C91.4326 22.6015 85.4474 25.2846 86.1228 27.0127C86.7283 28.1951 91.6422 26.9218 94.0642 25.2846C94.4368 25.08 94.6464 24.6934 94.6231 24.2841Z" fill="#22263F"/>
</g>
<mask id="mask8_1736_82346" style="mask-type:luminance" maskUnits="userSpaceOnUse" x="0" y="0" width="131" height="48">
<path d="M131 0H0.699951V48H131V0Z" fill="white"/>
</mask>
<g mask="url(#mask8_1736_82346)">
<path d="M68.1905 24.2841L68.4467 22.3741C68.4467 22.0558 68.7261 21.783 69.0522 21.783C69.122 21.783 69.1919 21.8057 69.2618 21.8284C71.381 22.6015 77.3662 25.2846 76.6908 27.0127C76.0853 28.1951 71.1714 26.9218 68.7494 25.2846C68.3768 25.0572 68.1672 24.6707 68.1905 24.2841Z" fill="#22263F"/>
</g>
<mask id="mask9_1736_82346" style="mask-type:luminance" maskUnits="userSpaceOnUse" x="0" y="0" width="131" height="48">
<path d="M131 0H0.699951V48H131V0Z" fill="white"/>
</mask>
<g mask="url(#mask9_1736_82346)">
<path d="M76.2251 21.2147C75.0374 21.1237 72.5222 20.8736 71.7537 20.3961C70.7057 19.7594 71.1481 16.8262 74.8976 17.2355C77.7621 17.5539 78.1115 19.4639 77.5758 20.5325C77.2964 21.01 76.7607 21.2602 76.2251 21.2147Z" fill="white"/>
</g>
<mask id="mask10_1736_82346" style="mask-type:luminance" maskUnits="userSpaceOnUse" x="0" y="0" width="131" height="48">
<path d="M131 0H0.699951V48H131V0Z" fill="white"/>
</mask>
<g mask="url(#mask10_1736_82346)">
<path d="M86.5885 21.2147C87.7762 21.1237 90.2914 20.8736 91.0599 20.3961C92.1079 19.7594 91.6654 16.8262 87.916 17.2355C85.0515 17.5539 84.7021 19.4639 85.2378 20.5325C85.5172 21.01 86.0296 21.2602 86.5885 21.2147Z" fill="white"/>
</g>
<mask id="mask11_1736_82346" style="mask-type:luminance" maskUnits="userSpaceOnUse" x="0" y="0" width="131" height="48">
<path d="M131 0H0.699951V48H131V0Z" fill="white"/>
</mask>
<g mask="url(#mask11_1736_82346)">
<path d="M28.6698 15.7801L24.9669 21.169C23.7326 20.5778 22.5682 19.9639 21.3572 19.5091C18.7023 18.4859 15.8145 18.2813 13.0431 18.8952C12.2746 19.0771 11.5526 19.3727 10.8773 19.7592C8.85117 21.0326 8.9909 23.4655 11.1102 24.557C12.6239 25.3528 14.3007 25.5574 15.9775 25.7621C18.8187 26.1032 21.5901 26.6034 24.1984 27.7858C27.0396 29.1046 29.1123 31.06 29.7644 34.1752C30.6261 38.4726 28.8794 42.2926 25.0368 44.5892C22.7545 45.908 20.1927 46.6583 17.5378 46.7948C11.8088 47.1813 6.45244 46.0444 1.65497 42.8611C1.32893 42.6565 1.02618 42.4063 0.676849 42.1562L4.84552 36.4717C6.7319 37.9269 8.94432 38.9502 11.2965 39.4731C13.7651 40.0188 16.2337 40.2007 18.7023 39.5413C19.4941 39.3367 20.2626 38.9729 20.9147 38.4954C22.6148 37.2221 22.4517 34.9483 20.6352 33.8568C19.2146 32.9928 17.5611 32.7881 15.9542 32.5153C13.5788 32.106 11.2033 31.6285 8.82788 31.1737C8.45526 31.0828 8.08264 30.9464 7.73331 30.7872C4.19343 29.4002 1.95772 27.0354 1.67826 23.1927C1.39879 19.35 2.95914 16.394 6.26613 14.3021C8.54842 12.9151 11.18 12.1193 13.8582 12.0056C18.842 11.6645 23.523 12.6195 27.8081 15.1889C28.0643 15.3708 28.3205 15.5527 28.6698 15.7801Z" fill="white"/>
</g>
<mask id="mask12_1736_82346" style="mask-type:luminance" maskUnits="userSpaceOnUse" x="0" y="0" width="131" height="48">
<path d="M131 0H0.699951V48H131V0Z" fill="white"/>
</mask>
<g mask="url(#mask12_1736_82346)">
<path d="M100.608 45.5898C95.6944 34.812 90.7572 24.0114 85.8433 13.2336C85.7269 12.8698 85.3542 12.6424 84.9583 12.6879C84.0268 12.6879 83.0952 12.6879 82.187 12.7106H80.8595C79.7882 12.7106 78.7403 12.7106 77.669 12.6879C77.6457 12.6879 77.6224 12.6879 77.5991 12.6879C77.4128 12.6879 77.2032 12.6879 77.0169 12.6879C76.5744 12.5969 76.1552 12.8925 76.0621 13.3245C76.0621 13.3473 76.0621 13.3473 76.0621 13.37L69.0056 30.1507C68.2138 31.856 67.422 33.5841 66.6534 35.2895C66.6069 35.1303 66.5603 35.0166 66.5137 34.8802C64.0218 27.7177 61.5299 20.5325 59.0613 13.37C58.8517 12.7561 58.549 12.6424 57.8969 12.6879C56.5927 12.7788 55.2886 12.7788 54.0077 12.6879C53.309 12.6424 53.0063 12.7788 52.7967 13.3928C50.5144 20.1914 48.1855 26.9901 45.8567 33.7888C45.6704 34.3117 45.4841 34.8347 45.2512 35.4714C45.1347 35.1531 45.0881 34.9484 45.0183 34.7665C42.8059 27.6495 40.5934 20.5325 38.381 13.4155C38.218 12.8698 38.0084 12.6651 37.3796 12.6879C36.0056 12.7333 34.6082 12.7106 33.2109 12.7106H29.8341C29.6478 12.7106 29.4847 12.8698 29.4847 13.0517C29.4847 13.0972 29.4847 13.1199 29.508 13.1654C33.4205 24.0114 37.3097 34.8347 41.2222 45.6808C41.3154 46.0446 41.6647 46.272 42.0373 46.2037C44.0867 46.181 46.1594 46.181 48.2088 46.2037C48.628 46.272 49.0239 45.9991 49.0705 45.5898C51.2131 39.3141 53.4022 33.0384 55.568 26.7627C55.6845 26.4671 55.7776 26.1488 55.9407 25.7168C56.0804 26.0806 56.1736 26.308 56.2434 26.5353C58.4558 32.902 60.6683 39.2459 62.8807 45.6126C63.067 46.1355 63.3232 46.272 63.9752 46.2265C64.3479 46.2037 64.7205 46.181 65.0931 46.1583C65.0931 46.181 65.0931 46.2037 65.0931 46.2265C66.5137 46.2265 67.8877 46.2265 69.2851 46.2037C69.4481 46.2037 69.6344 46.2265 69.7974 46.2265C70.4728 46.272 70.7522 46.09 70.9618 45.5216L72.2893 42.452H72.266L79.0197 26.8537L81.5815 20.9418L81.7678 21.3738L86.1228 31.7196L89.8257 40.5192C89.8722 40.5874 89.8955 40.6557 89.9188 40.7239C90.5709 42.3838 91.3161 44.0209 91.9915 45.6808C92.0847 46.0673 92.4573 46.2947 92.8532 46.2492C95.2752 46.2265 97.7205 46.2492 100.143 46.2265C100.352 46.2265 100.585 46.2037 100.888 46.181C100.748 45.9082 100.678 45.749 100.608 45.5898Z" fill="white"/>
</g>
<path d="M109.854 29.8096C112.905 29.8096 115.909 29.9233 118.913 29.7641C120.823 29.7186 122.476 28.4908 123.035 26.7399C124.13 23.7158 122.826 19.8048 118.215 19.6684C116.049 19.6002 113.86 19.6457 111.694 19.6457H109.854V29.8096ZM109.877 36.7219V46.1355H101.889V12.7106H102.611H117.935C120.008 12.6651 122.057 12.9834 123.99 13.6883C128.345 15.3709 130.697 18.5542 131.256 23.0109C131.559 25.171 131.326 27.3539 130.558 29.4003C128.927 33.5841 125.644 35.7669 121.242 36.4491C119.752 36.631 118.261 36.7219 116.747 36.6992C114.512 36.7447 112.253 36.7219 109.877 36.7219Z" fill="white"/>
</svg>