<svg width="48" height="48" viewBox="0 0 48 48" fill="none" xmlns="http://www.w3.org/2000/svg">
<mask id="mask0_1736_82403" style="mask-type:luminance" maskUnits="userSpaceOnUse" x="0" y="0" width="48" height="48">
<path d="M48 0H0V48H48V0Z" fill="white"/>
</mask>
<g mask="url(#mask0_1736_82403)">
<path d="M42.8918 29.0248C41.2122 28.4557 35.3268 26.9427 31.2874 31.6067C30.4407 28.2475 27.373 25.9294 23.9167 26.0404H23.9028C20.4465 25.9294 17.3649 28.2475 16.5182 31.6067C12.5344 27.0121 6.77385 28.4141 4.9971 28.9971H4.98322C5.0665 30.5101 5.59397 31.9676 6.46847 33.203C11.6183 40.3655 18.8918 42.989 23.8334 43.0584C23.8473 43.0584 23.8751 43.0584 23.9028 43.0584H23.9445C23.9861 43.0584 24.0139 43.0584 24.0555 43.0584C28.9971 42.989 36.2707 40.3655 41.4205 33.203C42.295 31.9676 42.8085 30.524 42.8918 29.0248Z" fill="white"/>
</g>
<mask id="mask1_1736_82403" style="mask-type:luminance" maskUnits="userSpaceOnUse" x="0" y="0" width="48" height="48">
<path d="M48 0H0V48H48V0Z" fill="white"/>
</mask>
<g mask="url(#mask1_1736_82403)">
<path d="M23.9861 0C37.2423 0 47.9861 10.7438 47.9861 24C47.9861 37.2562 37.2423 48 23.9861 48C10.7299 48 -0.0138855 37.2562 -0.0138855 24C-0.0138855 10.7438 10.7438 0 23.9861 0Z" fill="#CF1324"/>
</g>
<mask id="mask2_1736_82403" style="mask-type:luminance" maskUnits="userSpaceOnUse" x="0" y="0" width="48" height="48">
<path d="M48 0H0V48H48V0Z" fill="white"/>
</mask>
<g mask="url(#mask2_1736_82403)">
<path d="M9.89703 12.4789C11.1463 11.0492 12.6593 9.86928 14.3389 9.00867C11.188 5.33024 8.64776 3.51185 7.53729 3.08154C6.56563 6.03817 7.68998 10.7021 8.74492 13.9364C9.10583 13.4228 9.49449 12.937 9.89703 12.4789Z" fill="#EA5D0C"/>
</g>
<mask id="mask3_1736_82403" style="mask-type:luminance" maskUnits="userSpaceOnUse" x="0" y="0" width="48" height="48">
<path d="M48 0H0V48H48V0Z" fill="white"/>
</mask>
<g mask="url(#mask3_1736_82403)">
<path d="M37.9919 12.4789C38.3389 12.8675 38.6582 13.284 38.9774 13.7143C40.0046 10.48 41.0596 5.96876 40.1157 3.08154C39.0191 3.51185 36.5066 5.30248 33.3835 8.92538C35.1324 9.786 36.701 10.9936 37.9919 12.4789Z" fill="#EA5D0C"/>
</g>
<mask id="mask4_1736_82403" style="mask-type:luminance" maskUnits="userSpaceOnUse" x="0" y="0" width="48" height="48">
<path d="M48 0H0V48H48V0Z" fill="white"/>
</mask>
<g mask="url(#mask4_1736_82403)">
<path d="M37.9919 12.479C36.701 11.0076 35.1324 9.79997 33.3834 8.92548C36.5066 5.30258 39.0191 3.49807 40.1157 3.08164C41.0596 5.96886 40.0046 10.494 38.9774 13.7144C38.6582 13.2702 38.3389 12.8676 37.9919 12.479ZM9.89703 12.479C9.49449 12.9509 9.10583 13.4368 8.7588 13.9365C7.70386 10.7022 6.57951 6.03826 7.55117 3.08164C8.66164 3.51195 11.2018 5.33034 14.3528 9.00877C12.6593 9.86938 11.1463 11.0354 9.89703 12.479ZM42.8363 27.1927C42.2394 23.2089 41.3372 19.7387 39.9491 16.8931C41.1012 14.1586 41.8924 11.2852 42.2949 8.34249C42.5726 5.99662 42.4754 3.59523 41.5731 1.61027C41.3649 1.16608 40.8791 0.930109 40.4072 1.02727C39.6021 1.17996 38.2001 1.69355 36.2707 3.23433C34.2996 4.87227 32.5228 6.7323 30.9682 8.77279C28.7334 8.07875 26.4153 7.73173 24.0694 7.75949C24.0277 7.75949 24 7.75949 23.9583 7.75949C23.9167 7.75949 23.8889 7.75949 23.8473 7.75949C21.4459 7.73173 19.0584 8.10651 16.7681 8.84219C15.1995 6.77395 13.395 4.88615 11.3962 3.23433C9.46673 1.70744 8.07864 1.19384 7.27355 1.04115C6.78772 0.943988 6.31577 1.17996 6.10756 1.62415C5.2053 3.59523 5.10814 5.98274 5.37187 8.31472C5.7883 11.3546 6.62115 14.3251 7.82879 17.1429C6.5101 19.9469 5.63561 23.3199 5.0665 27.1927C4.98321 27.7896 4.95545 28.3864 5.01097 28.9972C6.78772 28.4142 12.5483 27.0122 16.5321 31.6068C17.3788 28.2476 20.4465 25.9295 23.9167 26.0406C25.1521 26.0128 26.3736 26.2904 27.4841 26.8179C29.3719 27.8173 30.7461 29.5524 31.2874 31.6068C35.3268 26.929 41.2122 28.4558 42.8918 29.025C42.9473 28.4142 42.9196 27.8034 42.8363 27.1927Z" fill="#F28F3C"/>
</g>
<mask id="mask5_1736_82403" style="mask-type:luminance" maskUnits="userSpaceOnUse" x="0" y="0" width="48" height="48">
<path d="M48 0H0V48H48V0Z" fill="white"/>
</mask>
<g mask="url(#mask5_1736_82403)">
<path d="M29.247 36.0209C29.0526 36.4096 28.9416 36.826 28.9416 37.2563C28.9277 37.3812 28.8167 37.4784 28.6779 37.4784H28.4003L27.7756 39.1441C27.7617 39.1857 27.7201 39.2274 27.6646 39.2274C27.6368 39.2274 27.609 39.2135 27.5813 39.1996C27.4564 39.0608 27.3453 38.9081 27.2481 38.7415C27.2204 38.7138 27.2204 38.6721 27.2204 38.6305V36.7288C26.1377 36.8815 25.055 36.9509 23.9723 36.9509H23.9029C22.8201 36.9509 21.7374 36.8676 20.6686 36.7149V38.6166C20.6686 38.6583 20.6547 38.6999 20.6409 38.7277C20.5437 38.8942 20.4326 39.0469 20.3077 39.1857C20.2661 39.2274 20.1828 39.2274 20.1411 39.1857C20.1273 39.1718 20.1134 39.158 20.1134 39.1441L19.4887 37.4784H19.2111C19.0723 37.4784 18.9613 37.3812 18.9474 37.2563C18.9335 36.826 18.8225 36.4096 18.642 36.0209C18.6004 35.9376 18.642 35.8404 18.7253 35.8127C18.7392 35.7988 18.7669 35.7988 18.7808 35.7988C19.2944 35.7849 20.4049 35.771 20.627 35.7849H22.5842C22.7646 35.4795 23.0561 35.2574 23.3893 35.1325V33.8277C21.0712 33.5362 20.7797 31.4125 20.8213 30.1632C20.8352 29.6496 21.2655 29.2332 21.7791 29.2332H26.1238C26.6374 29.2332 27.0677 29.6496 27.0816 30.1632C27.1232 31.4263 26.8317 33.5362 24.5136 33.8277V35.1325C24.8468 35.2436 25.1244 35.4795 25.3187 35.7849H27.2759C27.498 35.771 28.6085 35.7988 29.1221 35.7988C29.2053 35.7988 29.2747 35.8821 29.2747 35.9654C29.2609 35.9793 29.2609 36.007 29.247 36.0209Z" fill="#22263F"/>
</g>
<mask id="mask6_1736_82403" style="mask-type:luminance" maskUnits="userSpaceOnUse" x="0" y="0" width="48" height="48">
<path d="M48 0H0V48H48V0Z" fill="white"/>
</mask>
<g mask="url(#mask6_1736_82403)">
<path d="M29.247 36.0208C29.0526 36.4094 28.9416 36.8259 28.9416 37.2562C28.9277 37.3811 28.8167 37.4783 28.6778 37.4783H28.4002L27.7756 39.144C27.7617 39.1856 27.7201 39.2273 27.6645 39.2273C27.6368 39.2273 27.609 39.2134 27.5813 39.1995C27.4563 39.0607 27.3453 38.908 27.2481 38.7414C27.2204 38.7137 27.2204 38.672 27.2204 38.6304V36.7287C26.1376 36.8814 25.0549 36.9508 23.9584 36.9508H23.8889C22.8062 36.9508 21.7235 36.8675 20.6547 36.7287V38.6304C20.6547 38.672 20.6408 38.7137 20.6269 38.7414C20.5298 38.908 20.4187 39.0607 20.2938 39.1995C20.2522 39.2411 20.1689 39.2411 20.1272 39.1995C20.1134 39.1856 20.1134 39.1717 20.0995 39.1579L19.4748 37.4922H19.1972C19.0584 37.4922 18.9474 37.395 18.9335 37.2701C18.9196 36.8398 18.8086 36.4233 18.6281 36.0347C18.5865 35.9514 18.6281 35.8542 18.7114 35.8264C18.7253 35.8126 18.753 35.8126 18.7669 35.8126C19.2805 35.7987 20.391 35.7848 20.6131 35.7987H22.5703C22.7507 35.4933 23.0422 35.2712 23.3754 35.1463V33.8415C21.0573 33.55 20.7658 31.4262 20.8074 30.1769C20.8213 29.6634 21.2516 29.2469 21.7652 29.2469H26.1099C26.6235 29.2469 27.0538 29.6634 27.0677 30.1769C27.1093 31.4401 26.8178 33.55 24.4997 33.8415V35.1463C24.8328 35.2573 25.1243 35.4933 25.3048 35.7987H27.262C27.4841 35.7848 28.5946 35.8126 29.1081 35.8126C29.1914 35.8126 29.2608 35.8959 29.2608 35.9791C29.2608 35.9791 29.2608 36.0069 29.247 36.0208ZM26.2487 38.0196C26.2487 38.2972 26.0682 38.5471 25.8045 38.6304C25.7629 38.6443 25.7073 38.6443 25.6657 38.6443C25.3326 38.6443 25.2909 38.2001 24.93 38.2001C24.5691 38.2001 24.4719 39.2828 23.9445 39.3244H23.9306H23.9167C23.9028 39.3244 23.9028 39.3244 23.8889 39.3244C23.3892 39.255 23.2921 38.214 22.945 38.214C22.5841 38.214 22.5425 38.6581 22.2094 38.6581C22.1677 38.6581 22.1122 38.6581 22.0706 38.6443C21.8068 38.561 21.6264 38.3111 21.6264 38.0335V37.7142H26.2487V38.0196ZM42.8918 29.0248C41.2123 28.4557 35.3268 26.9427 31.2874 31.6067C30.7461 29.5384 29.3719 27.8033 27.4841 26.8178C26.3736 26.2903 25.1521 26.0266 23.9167 26.0404C20.4604 25.9294 17.3788 28.2475 16.5321 31.6067C12.5483 27.0121 6.78773 28.4141 5.01098 28.9971C5.01098 28.9971 5.01098 28.9971 4.9971 28.9971C5.08039 30.5101 5.60786 31.9676 6.48235 33.203C11.6321 40.3655 18.9057 42.989 23.8473 43.0584H23.9167V42.9334V43.0445C23.9306 43.0445 23.9445 43.0445 23.9584 43.0445C23.9861 43.0445 24.0278 43.0445 24.0694 43.0445C25.6379 43.0029 27.1926 42.7669 28.6917 42.3366C33.8554 40.8236 38.3528 37.6032 41.4343 33.1891C42.295 31.9676 42.8085 30.524 42.8918 29.0248Z" fill="white"/>
</g>
<mask id="mask7_1736_82403" style="mask-type:luminance" maskUnits="userSpaceOnUse" x="0" y="0" width="48" height="48">
<path d="M48 0H0V48H48V0Z" fill="white"/>
</mask>
<g mask="url(#mask7_1736_82403)">
<path d="M26.2487 37.7004V38.0197C26.2487 38.2973 26.0682 38.5472 25.8045 38.6305C25.7629 38.6443 25.7073 38.6443 25.6657 38.6443C25.3326 38.6443 25.2909 38.2002 24.93 38.2002C24.5691 38.2002 24.472 39.2829 23.9445 39.3245H23.9306H23.9167C23.9028 39.3245 23.9028 39.3245 23.889 39.3245C23.3892 39.2551 23.2921 38.214 22.9451 38.214C22.5842 38.214 22.5425 38.6582 22.2094 38.6582C22.1677 38.6582 22.1122 38.6582 22.0706 38.6443C21.8068 38.5611 21.6264 38.3112 21.6264 38.0336V37.7143H26.2487V37.7004Z" fill="#22263F"/>
</g>
<mask id="mask8_1736_82403" style="mask-type:luminance" maskUnits="userSpaceOnUse" x="0" y="0" width="48" height="48">
<path d="M48 0H0V48H48V0Z" fill="white"/>
</mask>
<g mask="url(#mask8_1736_82403)">
<path d="M35.2019 22.1122L34.9936 20.4465C34.9936 20.1688 34.7716 19.9329 34.4801 19.9329C34.4245 19.9329 34.3551 19.9467 34.2996 19.9606C32.4951 20.6408 27.4286 22.9589 27.9977 24.4719C28.5113 25.513 32.6755 24.3886 34.7438 22.9728C35.0492 22.8062 35.2296 22.4592 35.2019 22.1122Z" fill="#22263F"/>
</g>
<mask id="mask9_1736_82403" style="mask-type:luminance" maskUnits="userSpaceOnUse" x="0" y="0" width="48" height="48">
<path d="M48 0H0V48H48V0Z" fill="white"/>
</mask>
<g mask="url(#mask9_1736_82403)">
<path d="M12.7704 22.1122L12.9786 20.4465C12.9786 20.1688 13.2007 19.9329 13.4922 19.9329C13.5477 19.9329 13.6171 19.9467 13.6726 19.9606C15.4772 20.6408 20.5437 22.9589 19.9745 24.4719C19.461 25.513 15.2967 24.3886 13.2285 22.9728C12.9508 22.7784 12.7704 22.4592 12.7704 22.1122Z" fill="#22263F"/>
</g>
<mask id="mask10_1736_82403" style="mask-type:luminance" maskUnits="userSpaceOnUse" x="0" y="0" width="48" height="48">
<path d="M48 0H0V48H48V0Z" fill="white"/>
</mask>
<g mask="url(#mask10_1736_82403)">
<path d="M19.5998 19.4332C18.5865 19.3499 16.4627 19.1417 15.7964 18.7253C14.9081 18.1701 15.2828 15.6299 18.4616 15.9908C20.8907 16.2545 21.1822 17.9202 20.738 18.8641C20.502 19.2666 20.0579 19.4887 19.5998 19.4332Z" fill="white"/>
</g>
<mask id="mask11_1736_82403" style="mask-type:luminance" maskUnits="userSpaceOnUse" x="0" y="0" width="48" height="48">
<path d="M48 0H0V48H48V0Z" fill="white"/>
</mask>
<g mask="url(#mask11_1736_82403)">
<path d="M28.3864 19.4332C29.3997 19.3499 31.5234 19.1417 32.1897 18.7253C33.0781 18.1701 32.7033 15.6299 29.5246 15.9908C27.0954 16.2545 26.8039 17.9202 27.2481 18.8641C27.4841 19.2666 27.9283 19.4887 28.3864 19.4332Z" fill="white"/>
</g>
</svg>