<svg width="20" height="21" viewBox="0 0 20 21" fill="none" xmlns="http://www.w3.org/2000/svg">
<path fill-rule="evenodd" clip-rule="evenodd" d="M15.3124 11.7876C14.5262 14.7217 11.5104 16.4629 8.5763 15.6767C7.60728 15.417 6.77024 14.9154 6.11052 14.2544L5.79898 13.9429L8.23221 13.9425C8.64642 13.9424 8.98215 13.6065 8.98208 13.1923C8.982 12.7781 8.64616 12.4424 8.23194 12.4425L3.98851 12.4432C3.78959 12.4433 3.59884 12.5223 3.45821 12.663C3.31758 12.8037 3.2386 12.9945 3.23864 13.1934L3.23954 17.4352C3.23962 17.8494 3.57548 18.1851 3.98969 18.1851C4.40391 18.185 4.73962 17.8491 4.73954 17.4349L4.73903 15.0043L5.04888 15.3141C5.88991 16.1567 6.95759 16.7959 8.18808 17.1256C11.9223 18.1262 15.7607 15.9101 16.7613 12.1758C16.8685 11.7757 16.6311 11.3645 16.231 11.2573C15.8309 11.1501 15.4196 11.3875 15.3124 11.7876ZM16.5413 8.0652C16.682 7.92452 16.761 7.73373 16.7609 7.53479L16.7603 3.29285C16.7602 2.87863 16.4243 2.5429 16.0101 2.54297C15.5959 2.54304 15.2602 2.87888 15.2603 3.29309L15.2606 5.72396L14.9508 5.41415C14.1098 4.57173 13.0419 3.93228 11.8115 3.6026C8.07728 2.60201 4.23892 4.81809 3.23833 8.55235C3.13112 8.95245 3.36856 9.3637 3.76866 9.47091C4.16876 9.57812 4.58001 9.34068 4.68722 8.94058C5.4734 6.00652 8.48925 4.26531 11.4233 5.05149C12.3924 5.31115 13.2294 5.81282 13.8892 6.4738L14.2003 6.78492L11.7683 6.78492C11.3541 6.78492 11.0183 7.1207 11.0183 7.53492C11.0183 7.94913 11.3541 8.28492 11.7683 8.28492H16.0109C16.2099 8.28492 16.4007 8.20588 16.5413 8.0652Z" fill="currentColor"/>
</svg>
