<svg width="24" height="26" viewBox="0 0 24 26" fill="none" xmlns="http://www.w3.org/2000/svg">
<g id="heroicons-outline/circle-stack">
<path id="Vector" d="M20.25 7.14645C20.25 9.45697 16.5563 11.33 12 11.33C7.44365 11.33 3.75 9.45697 3.75 7.14645M20.25 7.14645C20.25 4.83594 16.5563 2.96289 12 2.96289C7.44365 2.96289 3.75 4.83594 3.75 7.14645M20.25 7.14645V18.5562C20.25 20.8667 16.5563 22.7397 12 22.7397C7.44365 22.7397 3.75 20.8667 3.75 18.5562V7.14645M20.25 7.14645V10.9497M3.75 7.14645V10.9497M20.25 10.9497V14.7529C20.25 17.0634 16.5563 18.9365 12 18.9365C7.44365 18.9365 3.75 17.0634 3.75 14.7529V10.9497M20.25 10.9497C20.25 13.2602 16.5563 15.1333 12 15.1333C7.44365 15.1333 3.75 13.2602 3.75 10.9497" stroke="#FAFAFA" stroke-width="1.5" stroke-linecap="round" stroke-linejoin="round"/>
</g>
</svg>
