<svg viewBox="0 0 20 21" fill="none" xmlns="http://www.w3.org/2000/svg">
  <path fillRule="evenodd" clipRule="evenodd" d="M6.28033 5.82428C6.57322 6.11718 6.57322 6.59205 6.28033 6.88494L2.56066 10.6046L6.28033 14.3243C6.57322 14.6172 6.57322 15.0921 6.28033 15.3849C5.98744 15.6778 5.51256 15.6778 5.21967 15.3849L0.96967 11.1349C0.676777 10.8421 0.676777 10.3672 0.96967 10.0743L5.21967 5.82428C5.51256 5.53139 5.98744 5.53139 6.28033 5.82428ZM13.7197 5.82428C14.0126 5.53139 14.4874 5.53139 14.7803 5.82428L19.0303 10.0743C19.3232 10.3672 19.3232 10.8421 19.0303 11.1349L14.7803 15.3849C14.4874 15.6778 14.0126 15.6778 13.7197 15.3849C13.4268 15.0921 13.4268 14.6172 13.7197 14.3243L17.4393 10.6046L13.7197 6.88494C13.4268 6.59205 13.4268 6.11718 13.7197 5.82428Z" fill="currentColor"/>
  <path fillRule="evenodd" clipRule="evenodd" d="M11.3774 2.61552C11.7856 2.6859 12.0595 3.07385 11.9891 3.48204L9.48909 17.982C9.41872 18.3902 9.03076 18.6641 8.62257 18.5937C8.21438 18.5233 7.94053 18.1354 8.0109 17.7272L10.5109 3.22718C10.5813 2.81899 10.9692 2.54514 11.3774 2.61552Z" fill="currentColor"/>
</svg>