<svg viewBox="0 0 24 25" fill="none" xmlns="http://www.w3.org/2000/svg">
  <path d="M16.7124 4.93439C17.2999 5.29602 17.8548 5.7314 18.364 6.24053C18.8731 6.74966 19.3085 7.30462 19.6701 7.89212M16.7124 4.93439L13.2636 9.07287M16.7124 4.93439C13.8316 3.16119 10.1684 3.16119 7.28763 4.93439M19.6701 7.89212L15.5316 11.3409M19.6701 7.89212C21.4433 10.7729 21.4433 14.4361 19.6701 17.3169M15.5316 11.3409C15.3507 10.8341 15.0574 10.3586 14.6517 9.95284C14.2459 9.54711 13.7703 9.25379 13.2636 9.07287M15.5316 11.3409C15.8228 12.1564 15.8228 13.0526 15.5316 13.8681M13.2636 9.07287C12.4481 8.7817 11.5519 8.7817 10.7364 9.07287M15.5316 13.8681C15.3507 14.3748 15.0574 14.8504 14.6517 15.2561C14.2459 15.6619 13.7703 15.9552 13.2636 16.1361M15.5316 13.8681L19.6701 17.3169M19.6701 17.3169C19.3085 17.9044 18.8731 18.4593 18.364 18.9685C17.8548 19.4776 17.2999 19.913 16.7124 20.2746M16.7124 20.2746L13.2636 16.1361M16.7124 20.2746C13.8316 22.0478 10.1684 22.0478 7.28763 20.2746M13.2636 16.1361C12.4481 16.4273 11.5519 16.4273 10.7364 16.1361M10.7364 16.1361C10.2297 15.9552 9.75408 15.6619 9.34835 15.2561C8.94262 14.8504 8.6493 14.3748 8.46838 13.8681M10.7364 16.1361L7.28763 20.2746M7.28763 20.2746C6.70012 19.913 6.14517 19.4776 5.63604 18.9685C5.12691 18.4593 4.69153 17.9044 4.3299 17.3169M4.3299 17.3169L8.46838 13.8681M4.3299 17.3169C2.5567 14.4361 2.5567 10.7729 4.3299 7.89212M8.46838 13.8681C8.17721 13.0526 8.17721 12.1564 8.46838 11.3409M8.46838 11.3409C8.6493 10.8341 8.94262 10.3586 9.34835 9.95284C9.75408 9.54711 10.2297 9.25379 10.7364 9.07287M8.46838 11.3409L4.3299 7.89212M10.7364 9.07287L7.28763 4.93439M7.28763 4.93439C6.70012 5.29602 6.14517 5.7314 5.63604 6.24053C5.12691 6.74966 4.69153 7.30462 4.3299 7.89212" stroke="currentColor" strokeWidth="1.5" strokeLinecap="round" strokeLinejoin="round"/>
</svg>