<svg width="24" height="25" viewBox="0 0 24 25" fill="none" xmlns="http://www.w3.org/2000/svg">
<path fill-rule="evenodd" clip-rule="evenodd" d="M2.68762 8.27536C3.05186 8.61839 3.62132 8.597 3.95954 8.22759L6.30003 5.67128L6.30003 16.1257C6.30003 16.6299 6.70297 17.0385 7.20003 17.0385C7.69708 17.0385 8.10003 16.6299 8.10003 16.1257V5.67128L10.4405 8.22759C10.7787 8.597 11.3482 8.61839 11.7124 8.27536C12.0767 7.93234 12.0978 7.3548 11.7595 6.98539L7.85954 2.72576C7.68925 2.53977 7.45029 2.43408 7.20003 2.43408C6.94977 2.43408 6.7108 2.53977 6.54051 2.72576L2.64051 6.98539C2.30229 7.3548 2.32338 7.93234 2.68762 8.27536ZM12.2876 16.0654C11.9234 16.4084 11.9023 16.9859 12.2405 17.3554L16.1405 21.615C16.3108 21.801 16.5498 21.9067 16.8 21.9067C17.0503 21.9067 17.2892 21.801 17.4595 21.615L21.3595 17.3554C21.6978 16.9859 21.6767 16.4084 21.3124 16.0654C20.9482 15.7224 20.3787 15.7437 20.0405 16.1132L17.7 18.6695V8.21501C17.7 7.71089 17.2971 7.30223 16.8 7.30223C16.303 7.30223 15.9 7.71089 15.9 8.21501V18.6695L13.5595 16.1132C13.2213 15.7437 12.6519 15.7224 12.2876 16.0654Z" fill="#000"/>
</svg>
